{"asset":{"version":"2.0","generator":"Blockbench 5.0.0-beta.2 glTF exporter"},"scenes":[{"nodes":[4,17],"name":"blockbench_export"}],"scene":0,"nodes":[{"mesh":1},{"name":"plane","mesh":0,"children":[0]},{"mesh":3},{"translation":[0,0.000625,0],"name":"plane","mesh":2,"children":[2]},{"name":"guide","children":[1,3]},{"translation":[-0.4375,-0.494791875,0.455729375],"name":"leg1","mesh":4},{"translation":[-0.4375,-0.494791875,-0.356770625],"name":"leg2","mesh":5},{"translation":[0.375,-0.494791875,-0.356770625],"name":"leg3","mesh":6},{"translation":[0.375,-0.494791875,0.455729375],"name":"leg4","mesh":7},{"translation":[0,-0.307291875,0.080729375],"name":"bottom","mesh":8},{"translation":[0,-0.182291875,0.080729375],"name":"back","mesh":9},{"translation":[0,-0.182291875,0.080729375],"name":"leftarm","mesh":10},{"translation":[-1.1875,-0.182291875,0.080729375],"name":"rightarm","mesh":11},{"translation":[0,0.255208125,0.080729375],"name":"leftarmtop","mesh":12},{"translation":[-1.25,0.255208125,0.080729375],"name":"rightarmtop","mesh":13},{"translation":[0,-0.182291875,0.080729375],"name":"backtop","mesh":14},{"translation":[0,-0.182291875,0.080729375],"name":"cushion","mesh":15},{"translation":[0,0.494791875,-0.080729375],"name":"BasicArmchair","children":[5,6,7,8,9,10,11,12,13,14,15,16]}],"bufferViews":[{"buffer":0,"byteOffset":0,"byteLength":48,"target":34962,"byteStride":12},{"buffer":0,"byteOffset":48,"byteLength":48,"target":34962,"byteStride":12},{"buffer":0,"byteOffset":96,"byteLength":32,"target":34962,"byteStride":8},{"buffer":0,"byteOffset":128,"byteLength":12,"target":34963},{"buffer":0,"byteOffset":140,"byteLength":48,"target":34962,"byteStride":12},{"buffer":0,"byteOffset":188,"byteLength":48,"target":34962,"byteStride":12},{"buffer":0,"byteOffset":236,"byteLength":48,"target":34962,"byteStride":12},{"buffer":0,"byteOffset":284,"byteLength":32,"target":34962,"byteStride":8},{"buffer":0,"byteOffset":316,"byteLength":12,"target":34963},{"buffer":0,"byteOffset":328,"byteLength":48,"target":34962,"byteStride":12},{"buffer":0,"byteOffset":376,"byteLength":288,"target":34962,"byteStride":12},{"buffer":0,"byteOffset":664,"byteLength":288,"target":34962,"byteStride":12},{"buffer":0,"byteOffset":952,"byteLength":192,"target":34962,"byteStride":8},{"buffer":0,"byteOffset":1144,"byteLength":72,"target":34963},{"buffer":0,"byteOffset":1216,"byteLength":288,"target":34962,"byteStride":12},{"buffer":0,"byteOffset":1504,"byteLength":288,"target":34962,"byteStride":12},{"buffer":0,"byteOffset":1792,"byteLength":192,"target":34962,"byteStride":8},{"buffer":0,"byteOffset":1984,"byteLength":72,"target":34963},{"buffer":0,"byteOffset":2056,"byteLength":288,"target":34962,"byteStride":12},{"buffer":0,"byteOffset":2344,"byteLength":288,"target":34962,"byteStride":12},{"buffer":0,"byteOffset":2632,"byteLength":192,"target":34962,"byteStride":8},{"buffer":0,"byteOffset":2824,"byteLength":72,"target":34963},{"buffer":0,"byteOffset":2896,"byteLength":288,"target":34962,"byteStride":12},{"buffer":0,"byteOffset":3184,"byteLength":288,"target":34962,"byteStride":12},{"buffer":0,"byteOffset":3472,"byteLength":192,"target":34962,"byteStride":8},{"buffer":0,"byteOffset":3664,"byteLength":72,"target":34963},{"buffer":0,"byteOffset":3736,"byteLength":288,"target":34962,"byteStride":12},{"buffer":0,"byteOffset":4024,"byteLength":288,"target":34962,"byteStride":12},{"buffer":0,"byteOffset":4312,"byteLength":192,"target":34962,"byteStride":8},{"buffer":0,"byteOffset":4504,"byteLength":72,"target":34963},{"buffer":0,"byteOffset":4576,"byteLength":288,"target":34962,"byteStride":12},{"buffer":0,"byteOffset":4864,"byteLength":288,"target":34962,"byteStride":12},{"buffer":0,"byteOffset":5152,"byteLength":192,"target":34962,"byteStride":8},{"buffer":0,"byteOffset":5344,"byteLength":72,"target":34963},{"buffer":0,"byteOffset":5416,"byteLength":288,"target":34962,"byteStride":12},{"buffer":0,"byteOffset":5704,"byteLength":288,"target":34962,"byteStride":12},{"buffer":0,"byteOffset":5992,"byteLength":192,"target":34962,"byteStride":8},{"buffer":0,"byteOffset":6184,"byteLength":72,"target":34963},{"buffer":0,"byteOffset":6256,"byteLength":288,"target":34962,"byteStride":12},{"buffer":0,"byteOffset":6544,"byteLength":288,"target":34962,"byteStride":12},{"buffer":0,"byteOffset":6832,"byteLength":192,"target":34962,"byteStride":8},{"buffer":0,"byteOffset":7024,"byteLength":72,"target":34963},{"buffer":0,"byteOffset":7096,"byteLength":288,"target":34962,"byteStride":12},{"buffer":0,"byteOffset":7384,"byteLength":288,"target":34962,"byteStride":12},{"buffer":0,"byteOffset":7672,"byteLength":192,"target":34962,"byteStride":8},{"buffer":0,"byteOffset":7864,"byteLength":72,"target":34963},{"buffer":0,"byteOffset":7936,"byteLength":288,"target":34962,"byteStride":12},{"buffer":0,"byteOffset":8224,"byteLength":288,"target":34962,"byteStride":12},{"buffer":0,"byteOffset":8512,"byteLength":192,"target":34962,"byteStride":8},{"buffer":0,"byteOffset":8704,"byteLength":72,"target":34963},{"buffer":0,"byteOffset":8776,"byteLength":288,"target":34962,"byteStride":12},{"buffer":0,"byteOffset":9064,"byteLength":288,"target":34962,"byteStride":12},{"buffer":0,"byteOffset":9352,"byteLength":192,"target":34962,"byteStride":8},{"buffer":0,"byteOffset":9544,"byteLength":72,"target":34963},{"buffer":0,"byteOffset":9616,"byteLength":288,"target":34962,"byteStride":12},{"buffer":0,"byteOffset":9904,"byteLength":288,"target":34962,"byteStride":12},{"buffer":0,"byteOffset":10192,"byteLength":192,"target":34962,"byteStride":8},{"buffer":0,"byteOffset":10384,"byteLength":72,"target":34963}],"buffers":[{"byteLength":10456,"uri":"data:application/octet-stream;base64,"}],"accessors":[{"bufferView":0,"componentType":5126,"count":4,"max":[1,0,1],"min":[-1,0,-1],"type":"VEC3"},{"bufferView":1,"componentType":5126,"count":4,"max":[0,1,0],"min":[0,1,0],"type":"VEC3"},{"bufferView":2,"componentType":5126,"count":4,"max":[0.1875,0.1875],"min":[0,0],"type":"VEC2"},{"bufferView":3,"componentType":5123,"count":6,"max":[3],"min":[0],"type":"SCALAR"},{"bufferView":4,"componentType":5126,"count":4,"max":[1,0,1],"min":[-1,0,-1],"type":"VEC3"},{"bufferView":5,"componentType":5126,"count":4,"max":[0.5,0,0.5],"min":[-0.5,0,-0.5],"type":"VEC3"},{"bufferView":6,"componentType":5126,"count":4,"max":[0,1,0],"min":[0,1,0],"type":"VEC3"},{"bufferView":7,"componentType":5126,"count":4,"max":[0.125,0.125],"min":[0,0],"type":"VEC2"},{"bufferView":8,"componentType":5123,"count":6,"max":[3],"min":[0],"type":"SCALAR"},{"bufferView":9,"componentType":5126,"count":4,"max":[0.5,0,0.5],"min":[-0.5,0,-0.5],"type":"VEC3"},{"bufferView":10,"componentType":5126,"count":24,"max":[0.125,0.1875,0.125],"min":[-0.0625,0,-0.0625],"type":"VEC3"},{"bufferView":11,"componentType":5126,"count":24,"max":[1,1,1],"min":[-1,-1,-1],"type":"VEC3"},{"bufferView":12,"componentType":5126,"count":24,"max":[0.0936279296875,0.0467529296875],"min":[0.0001220703125,0.0001220703125],"type":"VEC2"},{"bufferView":13,"componentType":5123,"count":36,"max":[23],"min":[0],"type":"SCALAR"},{"bufferView":14,"componentType":5126,"count":24,"max":[0.125,0.1875,0.125],"min":[-0.0625,0,-0.0625],"type":"VEC3"},{"bufferView":15,"componentType":5126,"count":24,"max":[1,1,1],"min":[-1,-1,-1],"type":"VEC3"},{"bufferView":16,"componentType":5126,"count":24,"max":[0.0936279296875,0.0467529296875],"min":[0.0001220703125,0.0001220703125],"type":"VEC2"},{"bufferView":17,"componentType":5123,"count":36,"max":[23],"min":[0],"type":"SCALAR"},{"bufferView":18,"componentType":5126,"count":24,"max":[0.125,0.1875,0.125],"min":[-0.0625,0,-0.0625],"type":"VEC3"},{"bufferView":19,"componentType":5126,"count":24,"max":[1,1,1],"min":[-1,-1,-1],"type":"VEC3"},{"bufferView":20,"componentType":5126,"count":24,"max":[0.0936279296875,0.0467529296875],"min":[0.0001220703125,0.0001220703125],"type":"VEC2"},{"bufferView":21,"componentType":5123,"count":36,"max":[23],"min":[0],"type":"SCALAR"},{"bufferView":22,"componentType":5126,"count":24,"max":[0.125,0.1875,0.125],"min":[-0.0625,0,-0.0625],"type":"VEC3"},{"bufferView":23,"componentType":5126,"count":24,"max":[1,1,1],"min":[-1,-1,-1],"type":"VEC3"},{"bufferView":24,"componentType":5126,"count":24,"max":[0.0936279296875,0.0467529296875],"min":[0.0001220703125,0.0001220703125],"type":"VEC2"},{"bufferView":25,"componentType":5123,"count":36,"max":[23],"min":[0],"type":"SCALAR"},{"bufferView":26,"componentType":5126,"count":24,"max":[0.5625,0.3125,0.5625],"min":[-0.5625,0,-0.5625],"type":"VEC3"},{"bufferView":27,"componentType":5126,"count":24,"max":[1,1,1],"min":[-1,-1,-1],"type":"VEC3"},{"bufferView":28,"componentType":5126,"count":24,"max":[0.9998779296875,0.1795654296875],"min":[0.4376220703125,0.0001220703125],"type":"VEC2"},{"bufferView":29,"componentType":5123,"count":36,"max":[23],"min":[0],"type":"SCALAR"},{"bufferView":30,"componentType":5126,"count":24,"max":[0.5625,1.0625,-0.4375],"min":[-0.5625,0,-0.6875],"type":"VEC3"},{"bufferView":31,"componentType":5126,"count":24,"max":[1,1,1],"min":[-1,-1,-1],"type":"VEC3"},{"bufferView":32,"componentType":5126,"count":24,"max":[0.9998779296875,0.9998779296875],"min":[0.6563720703125,0.8360595703125],"type":"VEC2"},{"bufferView":33,"componentType":5123,"count":36,"max":[23],"min":[0],"type":"SCALAR"},{"bufferView":34,"componentType":5126,"count":24,"max":[0.625,0.4375,0.6875],"min":[0.5,-0.0625,-0.625],"type":"VEC3"},{"bufferView":35,"componentType":5126,"count":24,"max":[1,1,1],"min":[-1,-1,-1],"type":"VEC3"},{"bufferView":36,"componentType":5126,"count":24,"max":[0.3592529296875,1.0076904296875],"min":[0.0001220703125,0.7813720703125],"type":"VEC2"},{"bufferView":37,"componentType":5123,"count":36,"max":[23],"min":[0],"type":"SCALAR"},{"bufferView":38,"componentType":5126,"count":24,"max":[0.6875,0.4375,0.6875],"min":[0.5625,-0.0625,-0.625],"type":"VEC3"},{"bufferView":39,"componentType":5126,"count":24,"max":[1,1,1],"min":[-1,-1,-1],"type":"VEC3"},{"bufferView":40,"componentType":5126,"count":24,"max":[0.3592529296875,1.0076904296875],"min":[0.0001220703125,0.7813720703125],"type":"VEC2"},{"bufferView":41,"componentType":5123,"count":36,"max":[23],"min":[0],"type":"SCALAR"},{"bufferView":42,"componentType":5126,"count":24,"max":[0.75,0.25,0.8125],"min":[0.5,0,-0.75],"type":"VEC3"},{"bufferView":43,"componentType":5126,"count":24,"max":[1,1,1],"min":[-1,-1,-1],"type":"VEC3"},{"bufferView":44,"componentType":5126,"count":24,"max":[0.4530029296875,0.7811279296875],"min":[0.0001220703125,0.5548095703125],"type":"VEC2"},{"bufferView":45,"componentType":5123,"count":36,"max":[23],"min":[0],"type":"SCALAR"},{"bufferView":46,"componentType":5126,"count":24,"max":[0.75,0.25,0.8125],"min":[0.5,0,-0.75],"type":"VEC3"},{"bufferView":47,"componentType":5126,"count":24,"max":[1,1,1],"min":[-1,-1,-1],"type":"VEC3"},{"bufferView":48,"componentType":5126,"count":24,"max":[0.4530029296875,0.7811279296875],"min":[0.0001220703125,0.5548095703125],"type":"VEC2"},{"bufferView":49,"componentType":5123,"count":36,"max":[23],"min":[0],"type":"SCALAR"},{"bufferView":50,"componentType":5126,"count":24,"max":[0.625,1.1875,-0.5],"min":[-0.625,0.5625,-0.625],"type":"VEC3"},{"bufferView":51,"componentType":5126,"count":24,"max":[1,1,1],"min":[-1,-1,-1],"type":"VEC3"},{"bufferView":52,"componentType":5126,"count":24,"max":[0.9998779296875,0.8358154296875],"min":[0.6563720703125,0.7423095703125],"type":"VEC2"},{"bufferView":53,"componentType":5123,"count":36,"max":[23],"min":[0],"type":"SCALAR"},{"bufferView":54,"componentType":5126,"count":24,"max":[0.5,0.25,0.625],"min":[-0.5,0,-0.5625],"type":"VEC3"},{"bufferView":55,"componentType":5126,"count":24,"max":[1,1,1],"min":[-1,-1,-1],"type":"VEC3"},{"bufferView":56,"componentType":5126,"count":24,"max":[0.9842529296875,0.3748779296875],"min":[0.4376220703125,0.1954345703125],"type":"VEC2"},{"bufferView":57,"componentType":5123,"count":36,"max":[23],"min":[0],"type":"SCALAR"}],"materials":[{"pbrMetallicRoughness":{"metallicFactor":0,"roughnessFactor":1},"alphaMode":"MASK","alphaCutoff":0.05,"doubleSided":true},{"pbrMetallicRoughness":{"metallicFactor":0,"roughnessFactor":1}},{"pbrMetallicRoughness":{"metallicFactor":0,"roughnessFactor":1},"alphaMode":"MASK","alphaCutoff":0.05,"doubleSided":true},{"pbrMetallicRoughness":{"metallicFactor":0,"roughnessFactor":1,"baseColorTexture":{"index":0}},"alphaMode":"MASK","alphaCutoff":0.05,"doubleSided":true}],"meshes":[{"primitives":[{"mode":4,"attributes":{"POSITION":0,"NORMAL":1,"TEXCOORD_0":2},"indices":3,"material":0}]},{"primitives":[{"mode":0,"attributes":{"POSITION":4},"material":1}]},{"primitives":[{"mode":4,"attributes":{"POSITION":5,"NORMAL":6,"TEXCOORD_0":7},"indices":8,"material":2}]},{"primitives":[{"mode":0,"attributes":{"POSITION":9},"material":1}]},{"primitives":[{"mode":4,"attributes":{"POSITION":10,"NORMAL":11,"TEXCOORD_0":12},"indices":13,"material":3}]},{"primitives":[{"mode":4,"attributes":{"POSITION":14,"NORMAL":15,"TEXCOORD_0":16},"indices":17,"material":3}]},{"primitives":[{"mode":4,"attributes":{"POSITION":18,"NORMAL":19,"TEXCOORD_0":20},"indices":21,"material":3}]},{"primitives":[{"mode":4,"attributes":{"POSITION":22,"NORMAL":23,"TEXCOORD_0":24},"indices":25,"material":3}]},{"primitives":[{"mode":4,"attributes":{"POSITION":26,"NORMAL":27,"TEXCOORD_0":28},"indices":29,"material":3}]},{"primitives":[{"mode":4,"attributes":{"POSITION":30,"NORMAL":31,"TEXCOORD_0":32},"indices":33,"material":3}]},{"primitives":[{"mode":4,"attributes":{"POSITION":34,"NORMAL":35,"TEXCOORD_0":36},"indices":37,"material":3}]},{"primitives":[{"mode":4,"attributes":{"POSITION":38,"NORMAL":39,"TEXCOORD_0":40},"indices":41,"material":3}]},{"primitives":[{"mode":4,"attributes":{"POSITION":42,"NORMAL":43,"TEXCOORD_0":44},"indices":45,"material":3}]},{"primitives":[{"mode":4,"attributes":{"POSITION":46,"NORMAL":47,"TEXCOORD_0":48},"indices":49,"material":3}]},{"primitives":[{"mode":4,"attributes":{"POSITION":50,"NORMAL":51,"TEXCOORD_0":52},"indices":53,"material":3}]},{"primitives":[{"mode":4,"attributes":{"POSITION":54,"NORMAL":55,"TEXCOORD_0":56},"indices":57,"material":3}]}],"textures":[{"sampler":0,"source":0,"name":"armchair_blue.png"}],"samplers":[{"magFilter":9728,"minFilter":9728,"wrapS":33071,"wrapT":33071}],"images":[{"mimeType":"image/png","name":"armchair_blue.png","uri":"armchair_blue.png"}]}