{"asset":{"version":"2.0","generator":"Blockbench 5.0.0-beta.2 glTF exporter"},"scenes":[{"nodes":[4,16],"name":"blockbench_export"}],"scene":0,"nodes":[{"mesh":1},{"name":"plane","mesh":0,"children":[0]},{"mesh":3},{"translation":[0,0.000625,0],"name":"plane","mesh":2,"children":[2]},{"name":"guide","children":[1,3]},{"name":"table","mesh":4},{"translation":[0,0,0.9375],"name":"drawer","mesh":5},{"translation":[0,0,0.90625],"name":"drawerhandle","mesh":6},{"name":"tvback1","mesh":7},{"name":"tvback2","mesh":8},{"mesh":10},{"name":"tvbase","mesh":9,"children":[10]},{"mesh":12},{"rotation":[0.7071067811865475,0,0,0.7071067811865476],"translation":[0,1.28125,0.63125],"name":"SCREEN_REPLACE","mesh":11,"children":[12]},{"mesh":14},{"rotation":[0.7071067811865475,0,0,0.7071067811865476],"translation":[0,1.28125,0.6375],"name":"SCREEN_REPLACE_OVERLAY","mesh":13,"children":[14]},{"name":"BudgetTV","children":[5,6,7,8,9,11,13,15]}],"bufferViews":[{"buffer":0,"byteOffset":0,"byteLength":48,"target":34962,"byteStride":12},{"buffer":0,"byteOffset":48,"byteLength":48,"target":34962,"byteStride":12},{"buffer":0,"byteOffset":96,"byteLength":32,"target":34962,"byteStride":8},{"buffer":0,"byteOffset":128,"byteLength":12,"target":34963},{"buffer":0,"byteOffset":140,"byteLength":48,"target":34962,"byteStride":12},{"buffer":0,"byteOffset":188,"byteLength":48,"target":34962,"byteStride":12},{"buffer":0,"byteOffset":236,"byteLength":48,"target":34962,"byteStride":12},{"buffer":0,"byteOffset":284,"byteLength":32,"target":34962,"byteStride":8},{"buffer":0,"byteOffset":316,"byteLength":12,"target":34963},{"buffer":0,"byteOffset":328,"byteLength":48,"target":34962,"byteStride":12},{"buffer":0,"byteOffset":376,"byteLength":288,"target":34962,"byteStride":12},{"buffer":0,"byteOffset":664,"byteLength":288,"target":34962,"byteStride":12},{"buffer":0,"byteOffset":952,"byteLength":192,"target":34962,"byteStride":8},{"buffer":0,"byteOffset":1144,"byteLength":72,"target":34963},{"buffer":0,"byteOffset":1216,"byteLength":288,"target":34962,"byteStride":12},{"buffer":0,"byteOffset":1504,"byteLength":288,"target":34962,"byteStride":12},{"buffer":0,"byteOffset":1792,"byteLength":192,"target":34962,"byteStride":8},{"buffer":0,"byteOffset":1984,"byteLength":72,"target":34963},{"buffer":0,"byteOffset":2056,"byteLength":288,"target":34962,"byteStride":12},{"buffer":0,"byteOffset":2344,"byteLength":288,"target":34962,"byteStride":12},{"buffer":0,"byteOffset":2632,"byteLength":192,"target":34962,"byteStride":8},{"buffer":0,"byteOffset":2824,"byteLength":72,"target":34963},{"buffer":0,"byteOffset":2896,"byteLength":288,"target":34962,"byteStride":12},{"buffer":0,"byteOffset":3184,"byteLength":288,"target":34962,"byteStride":12},{"buffer":0,"byteOffset":3472,"byteLength":192,"target":34962,"byteStride":8},{"buffer":0,"byteOffset":3664,"byteLength":72,"target":34963},{"buffer":0,"byteOffset":3736,"byteLength":288,"target":34962,"byteStride":12},{"buffer":0,"byteOffset":4024,"byteLength":288,"target":34962,"byteStride":12},{"buffer":0,"byteOffset":4312,"byteLength":192,"target":34962,"byteStride":8},{"buffer":0,"byteOffset":4504,"byteLength":72,"target":34963},{"buffer":0,"byteOffset":4576,"byteLength":1548,"target":34962,"byteStride":12},{"buffer":0,"byteOffset":6124,"byteLength":1548,"target":34962,"byteStride":12},{"buffer":0,"byteOffset":7672,"byteLength":1032,"target":34962,"byteStride":8},{"buffer":0,"byteOffset":8704,"byteLength":260,"target":34963},{"buffer":0,"byteOffset":8964,"byteLength":372,"target":34962,"byteStride":12},{"buffer":0,"byteOffset":9336,"byteLength":48,"target":34962,"byteStride":12},{"buffer":0,"byteOffset":9384,"byteLength":48,"target":34962,"byteStride":12},{"buffer":0,"byteOffset":9432,"byteLength":32,"target":34962,"byteStride":8},{"buffer":0,"byteOffset":9464,"byteLength":12,"target":34963},{"buffer":0,"byteOffset":9476,"byteLength":48,"target":34962,"byteStride":12},{"buffer":0,"byteOffset":9524,"byteLength":48,"target":34962,"byteStride":12},{"buffer":0,"byteOffset":9572,"byteLength":48,"target":34962,"byteStride":12},{"buffer":0,"byteOffset":9620,"byteLength":32,"target":34962,"byteStride":8},{"buffer":0,"byteOffset":9652,"byteLength":12,"target":34963},{"buffer":0,"byteOffset":9664,"byteLength":48,"target":34962,"byteStride":12}],"buffers":[{"byteLength":9712,"uri":"data:application/octet-stream;base64,"}],"accessors":[{"bufferView":0,"componentType":5126,"count":4,"max":[1,0,1],"min":[-1,0,-1],"type":"VEC3"},{"bufferView":1,"componentType":5126,"count":4,"max":[0,1,0],"min":[0,1,0],"type":"VEC3"},{"bufferView":2,"componentType":5126,"count":4,"max":[0.6000000238418579,0.800000011920929],"min":[0,0],"type":"VEC2"},{"bufferView":3,"componentType":5123,"count":6,"max":[3],"min":[0],"type":"SCALAR"},{"bufferView":4,"componentType":5126,"count":4,"max":[1,0,1],"min":[-1,0,-1],"type":"VEC3"},{"bufferView":5,"componentType":5126,"count":4,"max":[0.5,0,0.5],"min":[-0.5,0,-0.5],"type":"VEC3"},{"bufferView":6,"componentType":5126,"count":4,"max":[0,1,0],"min":[0,1,0],"type":"VEC3"},{"bufferView":7,"componentType":5126,"count":4,"max":[0.4000000059604645,0.5333333015441895],"min":[0,0],"type":"VEC2"},{"bufferView":8,"componentType":5123,"count":6,"max":[3],"min":[0],"type":"SCALAR"},{"bufferView":9,"componentType":5126,"count":4,"max":[0.5,0,0.5],"min":[-0.5,0,-0.5],"type":"VEC3"},{"bufferView":10,"componentType":5126,"count":24,"max":[0.875,0.625,0.875],"min":[-0.875,0,-0.875],"type":"VEC3"},{"bufferView":11,"componentType":5126,"count":24,"max":[1,1,1],"min":[-1,-1,-1],"type":"VEC3"},{"bufferView":12,"componentType":5126,"count":24,"max":[0.8748779296875,0.9998779296875],"min":[0.0001220703125,0.7032470703125],"type":"VEC2"},{"bufferView":13,"componentType":5123,"count":36,"max":[23],"min":[0],"type":"SCALAR"},{"bufferView":14,"componentType":5126,"count":24,"max":[0.75,0.5,0],"min":[-0.8125,0.1875,-0.125],"type":"VEC3"},{"bufferView":15,"componentType":5126,"count":24,"max":[1,1,1],"min":[-1,-1,-1],"type":"VEC3"},{"bufferView":16,"componentType":5126,"count":24,"max":[0.4217529296875,0.7030029296875],"min":[0.0001220703125,0.6485595703125],"type":"VEC2"},{"bufferView":17,"componentType":5123,"count":36,"max":[23],"min":[0],"type":"SCALAR"},{"bufferView":18,"componentType":5126,"count":24,"max":[0.125,0.375,0.0625],"min":[-0.125,0.3125,-0.0625],"type":"VEC3"},{"bufferView":19,"componentType":5126,"count":24,"max":[1,1,1],"min":[-1,-1,-1],"type":"VEC3"},{"bufferView":20,"componentType":5126,"count":24,"max":[0.0936279296875,0.6483154296875],"min":[0.0001220703125,0.6251220703125],"type":"VEC2"},{"bufferView":21,"componentType":5123,"count":36,"max":[23],"min":[0],"type":"SCALAR"},{"bufferView":22,"componentType":5126,"count":24,"max":[0.625,1.75,-0.375],"min":[-0.625,0.75,-0.625],"type":"VEC3"},{"bufferView":23,"componentType":5126,"count":24,"max":[1,1,1],"min":[-1,-1,-1],"type":"VEC3"},{"bufferView":24,"componentType":5126,"count":24,"max":[0.3748779296875,0.4530029296875],"min":[0.0001220703125,0.2969970703125],"type":"VEC2"},{"bufferView":25,"componentType":5123,"count":36,"max":[23],"min":[0],"type":"SCALAR"},{"bufferView":26,"componentType":5126,"count":24,"max":[0.375,1.5625,-0.5625],"min":[-0.375,0.9375,-0.75],"type":"VEC3"},{"bufferView":27,"componentType":5126,"count":24,"max":[1,1,1],"min":[-1,-1,-1],"type":"VEC3"},{"bufferView":28,"componentType":5126,"count":24,"max":[0.6092529296875,0.3983154296875],"min":[0.3751220703125,0.2969970703125],"type":"VEC2"},{"bufferView":29,"componentType":5123,"count":36,"max":[23],"min":[0],"type":"SCALAR"},{"bufferView":30,"componentType":5126,"count":129,"max":[0.75,1.875,0.6875],"min":[-0.75,0.625,-0.4375],"type":"VEC3"},{"bufferView":31,"componentType":5126,"count":129,"max":[1,1,1],"min":[-1,-1,-1],"type":"VEC3"},{"bufferView":32,"componentType":5126,"count":129,"max":[1,0.296875],"min":[0,0],"type":"VEC2"},{"bufferView":33,"componentType":5123,"count":129,"max":[128],"min":[0],"type":"SCALAR"},{"bufferView":34,"componentType":5126,"count":31,"max":[0.75,1.875,0.6875],"min":[-0.75,0.625,-0.4375],"type":"VEC3"},{"bufferView":35,"componentType":5126,"count":4,"max":[0.625,0,0.46875],"min":[-0.625,0,-0.46875],"type":"VEC3"},{"bufferView":36,"componentType":5126,"count":4,"max":[0,1,0],"min":[0,1,0],"type":"VEC3"},{"bufferView":37,"componentType":5126,"count":4,"max":[1,1],"min":[0,0],"type":"VEC2"},{"bufferView":38,"componentType":5123,"count":6,"max":[3],"min":[0],"type":"SCALAR"},{"bufferView":39,"componentType":5126,"count":4,"max":[0.625,0,0.46875],"min":[-0.625,0,-0.46875],"type":"VEC3"},{"bufferView":40,"componentType":5126,"count":4,"max":[0.625,0,0.46875],"min":[-0.625,0,-0.46875],"type":"VEC3"},{"bufferView":41,"componentType":5126,"count":4,"max":[0,1,0],"min":[0,1,0],"type":"VEC3"},{"bufferView":42,"componentType":5126,"count":4,"max":[1,1],"min":[0,0],"type":"VEC2"},{"bufferView":43,"componentType":5123,"count":6,"max":[3],"min":[0],"type":"SCALAR"},{"bufferView":44,"componentType":5126,"count":4,"max":[0.625,0,0.46875],"min":[-0.625,0,-0.46875],"type":"VEC3"}],"materials":[{"pbrMetallicRoughness":{"metallicFactor":0,"roughnessFactor":1},"alphaMode":"MASK","alphaCutoff":0.05,"doubleSided":true},{"pbrMetallicRoughness":{"metallicFactor":0,"roughnessFactor":1}},{"pbrMetallicRoughness":{"metallicFactor":0,"roughnessFactor":1},"alphaMode":"MASK","alphaCutoff":0.05,"doubleSided":true},{"pbrMetallicRoughness":{"metallicFactor":0,"roughnessFactor":1,"baseColorTexture":{"index":0}},"alphaMode":"MASK","alphaCutoff":0.05,"doubleSided":true},{"pbrMetallicRoughness":{"metallicFactor":0,"roughnessFactor":1,"baseColorTexture":{"index":1}},"alphaMode":"MASK","alphaCutoff":0.05,"doubleSided":true},{"pbrMetallicRoughness":{"metallicFactor":0,"roughnessFactor":1,"baseColorTexture":{"index":2}},"alphaMode":"MASK","alphaCutoff":0.05,"doubleSided":true}],"meshes":[{"primitives":[{"mode":4,"attributes":{"POSITION":0,"NORMAL":1,"TEXCOORD_0":2},"indices":3,"material":0}]},{"primitives":[{"mode":0,"attributes":{"POSITION":4},"material":1}]},{"primitives":[{"mode":4,"attributes":{"POSITION":5,"NORMAL":6,"TEXCOORD_0":7},"indices":8,"material":2}]},{"primitives":[{"mode":0,"attributes":{"POSITION":9},"material":1}]},{"primitives":[{"mode":4,"attributes":{"POSITION":10,"NORMAL":11,"TEXCOORD_0":12},"indices":13,"material":3}]},{"primitives":[{"mode":4,"attributes":{"POSITION":14,"NORMAL":15,"TEXCOORD_0":16},"indices":17,"material":3}]},{"primitives":[{"mode":4,"attributes":{"POSITION":18,"NORMAL":19,"TEXCOORD_0":20},"indices":21,"material":3}]},{"primitives":[{"mode":4,"attributes":{"POSITION":22,"NORMAL":23,"TEXCOORD_0":24},"indices":25,"material":3}]},{"primitives":[{"mode":4,"attributes":{"POSITION":26,"NORMAL":27,"TEXCOORD_0":28},"indices":29,"material":3}]},{"primitives":[{"mode":4,"attributes":{"POSITION":30,"NORMAL":31,"TEXCOORD_0":32},"indices":33,"material":3}]},{"primitives":[{"mode":0,"attributes":{"POSITION":34},"material":1}]},{"primitives":[{"mode":4,"attributes":{"POSITION":35,"NORMAL":36,"TEXCOORD_0":37},"indices":38,"material":4}]},{"primitives":[{"mode":0,"attributes":{"POSITION":39},"material":1}]},{"primitives":[{"mode":4,"attributes":{"POSITION":40,"NORMAL":41,"TEXCOORD_0":42},"indices":43,"material":5}]},{"primitives":[{"mode":0,"attributes":{"POSITION":44},"material":1}]}],"textures":[{"sampler":0,"source":0,"name":"BudgetTV.png"},{"sampler":1,"source":1,"name":"SCREEN_REPLACE.png"},{"sampler":2,"source":2,"name":"SCREEN_REPLACE_OVERLAY.png"}],"samplers":[{"magFilter":9728,"minFilter":9728,"wrapS":33071,"wrapT":33071},{"magFilter":9728,"minFilter":9728,"wrapS":33071,"wrapT":33071},{"magFilter":9728,"minFilter":9728,"wrapS":33071,"wrapT":33071}],"images":[{"mimeType":"image/png","name":"BudgetTV.png","uri":"BudgetTV.png"},{"mimeType":"image/png","name":"SCREEN_REPLACE.png","uri":"SCREEN_REPLACE.png"},{"mimeType":"image/png","name":"SCREEN_REPLACE_OVERLAY.png","uri":"SCREEN_REPLACE_OVERLAY.png"}]}